# xmcd
#
# Track frame offsets:
#	150
#	13367
#	25022
#	38425
#	52643
#	65956
#	80530
#	94106
#	106775
#	121909
#	135781
#	151183
#	166557
#	178396
#	192500
#	207448
#	219653
#	230409
#	241720
#	255213
#	266586
#	275749
#
# Disc length: 3796 seconds
#
# Revision: 0
# Processed by: cddbd v1.5.2PL0 Copyright (c) Steve Scherf et al.
# Submitted via: EasyCDDAExtractor 2010.4.0.0
#
DISCID=200ed216
DTITLE=Various Artist - Blue Skies
DYEAR=2010
DGENRE=vocal
TTITLE0=Billie Holliday - That Ole Devil Called Love
TTITLE1=Frank Sinatra - Blue Skies
TTITLE2=Judy Garland - Zing! Went the Strings of My Heart
TTITLE3=Frank Sinatra - These Foolish Things
TTITLE4=Billie Holiday - God Bless the Child
TTITLE5=Frank Sinatra - Nancy
TTITLE6=Billie Holiday - Body and Soul
TTITLE7=Rosemary Clooney - Half As Much
TTITLE8=Peggy Lee - Lover
TTITLE9=Johnnie Ray - Cry
TTITLE10=Edith Piaf - Sous le ciel de Paris
TTITLE11=Ella Fitzgerald - The Lady Is a Tramp
TTITLE12=Eartha Kitt - C'est si bon
TTITLE13=Peggy Lee - Black Coffee
TTITLE14=Edith Piaf - Padam Padam
TTITLE15=Earthe Kitt - Under the Bridges of Paris
TTITLE16=Paul Anka - Crying in the Wind
TTITLE17=Johnnie Ray - Yes Tonight, Josephine
TTITLE18=Rosemary Clooney - Hey There
TTITLE19=Buddy Holly - Peggy Sue
TTITLE20=Patsy Cline &The Jordanaires - Walkin' After Midnight
TTITLE21=Elvis Presley - All Shook Up
EXTD=
EXTT0=
EXTT1=
EXTT2=
EXTT3=
EXTT4=
EXTT5=
EXTT6=
EXTT7=
EXTT8=
EXTT9=
EXTT10=
EXTT11=
EXTT12=
EXTT13=
EXTT14=
EXTT15=
EXTT16=
EXTT17=
EXTT18=
EXTT19=
EXTT20=
EXTT21=
PLAYORDER=
